<?xml version="1.0" encoding="UTF-8"?>
<svg id="Layer_1_Image" data-name="Layer 1 Image" xmlns="http://www.w3.org/2000/svg" viewBox="0 0 28.54 28.66">
  <defs>
    <style>
      .cls-1 {
        fill: #fff;
        stroke-width: 0px;
      }
    </style>
  </defs>
  <path class="cls-1" d="m28.54,27.79c-.19.04-.21.24-.31.36-.41.54-1.07.66-1.65.3-.2-.13-.38-.29-.55-.46C17.58,19.5,9.12,11,.66,2.5c-.1-.1-.21-.2-.3-.31C-.22,1.45-.1.7.69.18c.07-.05.19-.06.19-.18h.72c.64.42,1.15.98,1.68,1.52,1.81,1.81,3.61,3.63,5.42,5.44.15.15.26.34.48.41.24-.09.37-.3.54-.46,2.01-1.98,4.03-3.96,6.04-5.94.24-.24.48-.47.78-.63.94-.52,1.85-.02,1.95,1.06.03.29.01.58.01.86,0,4.61,0,9.21-.01,13.82,0,.53.15.89.52,1.25,2.82,2.8,5.61,5.63,8.42,8.44.4.4.77.83,1.11,1.29v.72Z"/>
  <path class="cls-1" d="m1.7,14.33c0-1.2,0-2.4,0-3.6.01-1.06.47-1.51,1.53-1.54.14,0,.29.01.43,0,.41-.05.71.1,1,.4,3.3,3.33,6.61,6.65,9.91,9.97,1.18,1.19,2.35,2.38,3.55,3.56.27.27.41.54.4.94-.03.98-.01,1.97-.02,2.95,0,.42-.1.8-.34,1.15-.35.49-.82.62-1.37.39-.48-.2-.83-.56-1.19-.91-2.14-2.12-4.29-4.24-6.43-6.35-.46-.45-.94-.89-1.38-1.36-.23-.25-.49-.33-.82-.33-1.17.02-2.34,0-3.51,0-.19,0-.39.02-.57-.02-.8-.16-1.19-.59-1.19-1.36,0-1.03,0-2.06,0-3.09,0-.26,0-.53,0-.79Z"/>
</svg>