<?xml version="1.0" encoding="UTF-8"?>
<svg id="Layer_7_Image" data-name="Layer 7 Image" xmlns="http://www.w3.org/2000/svg" viewBox="0 0 25.01 28.51">
  <defs>
    <style>
      .cls-1 {
        fill: #fff;
        stroke-width: 0px;
      }
    </style>
  </defs>
  <path class="cls-1" d="m16.85,14.19c0,4.05,0,8.11,0,12.16,0,.46.01.91-.16,1.35-.32.78-1.01,1.02-1.75.62-.36-.2-.65-.49-.94-.77-2.57-2.54-5.15-5.07-7.71-7.62-.33-.33-.65-.49-1.12-.48-1.14.03-2.29,0-3.44.02-.34,0-.68-.04-.98-.18-.61-.28-.71-.83-.72-1.44,0-1.94-.03-3.89-.04-5.83,0-.46-.01-.91,0-1.37.04-1.12.53-1.61,1.65-1.62,1.19,0,2.38,0,3.58.05.42.01.71-.12,1-.42,2.57-2.57,5.16-5.13,7.74-7.68.24-.23.48-.47.75-.66.99-.73,2.02-.1,2.11.99.03.33.02.67.02,1.01,0,3.96,0,7.92,0,11.88,0,0,0,0-.01,0Z"/>
  <path class="cls-1" d="m25.01,14.29c0,2.85,0,5.71,0,8.56,0,.51-.05,1-.36,1.43-.45.63-.98.62-1.42-.01-.31-.43-.35-.93-.35-1.44,0-2.83,0-5.66,0-8.49,0-2.88,0-5.76,0-8.63,0-.51.04-1.01.34-1.44.45-.66,1.02-.66,1.47.01.29.44.33.93.33,1.44,0,2.85,0,5.71,0,8.56Z"/>
  <path class="cls-1" d="m20.3,14.05c0-1.77,0-3.55,0-5.32,0-.41.02-.82.2-1.19.18-.38.45-.74.89-.73.4,0,.66.35.83.7.13.28.21.58.21.9,0,3.81,0,7.62,0,11.44,0,.27-.06.53-.15.77-.16.41-.43.76-.89.84-.31.05-.76-.4-.94-.87-.12-.32-.15-.65-.15-.99,0-1.32,0-2.64,0-3.96,0-.53,0-1.05,0-1.58Z"/>
  <path class="cls-1" d="m17.73,14.19c0-1.1,0-2.2,0-3.31,0-.37.05-.72.2-1.05.18-.38.45-.74.89-.73.4,0,.66.34.83.7.11.23.2.49.2.76,0,2.42.02,4.84,0,7.26,0,.76-.55,1.46-1.02,1.47-.5.01-1.04-.7-1.07-1.51-.03-1.2,0-2.4,0-3.59,0,0,0,0-.01,0Z"/>
</svg>