<?xml version="1.0" encoding="UTF-8"?>
<svg id="dnddice_copy_2_Image" data-name="dnddice copy 2 Image" xmlns="http://www.w3.org/2000/svg" viewBox="0 0 215.71 215.64">
  <defs>
    <style>
      .cls-1 {
        fill: #9d5f0e;
      }

      .cls-1, .cls-2 {
        stroke-width: 0px;
      }

      .cls-2 {
        fill: #fdfcfb;
      }
    </style>
  </defs>
  <path class="cls-1" d="m107.26.03c2.96,0,5.41-.08,7.84.02,2.42.1,4.85.25,7.23.77,1.64.35,3.32.35,4.97.68,4.34.87,8.62,1.95,12.86,3.21,6.21,1.84,12.1,4.45,17.85,7.4,5.51,2.82,10.67,6.19,15.57,9.95,4.7,3.6,9.08,7.57,13.12,11.91,3.02,3.24,5.81,6.67,8.45,10.23,2.9,3.91,5.49,8.01,7.81,12.28,2.4,4.41,4.52,8.97,6.26,13.68,2.08,5.64,3.65,11.45,4.83,17.35.48,2.41.77,4.87,1.09,7.31.92,6.97.47,13.96.46,20.94,0,2.15-.35,4.35-.7,6.51-.36,2.2-.51,4.42-1,6.61-1.08,4.86-2.26,9.7-3.91,14.4-2.23,6.37-5.02,12.49-8.43,18.33-1.59,2.72-3.17,5.44-5.02,7.97-2.08,2.86-4.22,5.69-6.53,8.39-2.52,2.96-5.21,5.74-8.04,8.39-6.1,5.7-12.73,10.69-19.98,14.85-5.58,3.2-11.34,5.97-17.39,8.15-5.21,1.88-10.52,3.42-15.95,4.45-3.23.61-6.52.94-9.79,1.37-6.15.8-12.29.2-18.43.46-.7.03-1.33-.23-2.01-.3-2.29-.23-4.6-.38-6.87-.75-2.58-.42-5.17-.86-7.72-1.46-5.58-1.31-11.05-3-16.36-5.15-5.8-2.35-11.39-5.15-16.69-8.52-4.47-2.84-8.76-5.91-12.81-9.33-1.03-.87-2.05-1.77-3.03-2.71-1.41-1.35-2.89-2.62-4.26-4.02-2.65-2.71-5.13-5.56-7.5-8.53-3.92-4.9-7.39-10.08-10.35-15.6-2.95-5.51-5.58-11.18-7.46-17.18-1.16-3.69-2.24-7.39-3.08-11.16-.54-2.45-1.17-4.88-1.24-7.41-.02-.92-.35-1.79-.48-2.7-.93-6.93-.44-13.88-.47-20.82,0-2.28.3-4.59.75-6.87.41-2.06.5-4.18.94-6.26,1.38-6.48,3.14-12.85,5.62-19,1.97-4.88,4.27-9.61,6.92-14.17,2.35-4.03,4.9-7.92,7.76-11.59,3.98-5.12,8.33-9.88,13.14-14.25,3.49-3.17,7.17-6.09,11.01-8.79,5.25-3.7,10.82-6.86,16.68-9.51,2.33-1.05,4.64-2.16,7.04-2.99,3.16-1.09,6.3-2.23,9.55-3.03,3.09-.76,6.19-1.5,9.31-2.14.51-.1,1.02-.17,1.54-.2,2.51-.15,4.96-.69,7.46-.94,3.32-.33,6.63-.07,9.41-.22ZM29.85,107.73c0,14.68,0,29.36,0,44.03,0,.32,0,.64,0,.96,0,.25.1.36.38.48,2.54,1.06,4.79,2.66,7.2,3.96,2.17,1.17,4.26,2.48,6.39,3.71,1.93,1.11,3.9,2.16,5.8,3.32,1.56.95,3.16,1.82,4.73,2.74,1.99,1.16,3.97,2.34,5.97,3.49,1.44.84,2.9,1.64,4.35,2.47,1.38.79,2.76,1.58,4.13,2.39,1.99,1.16,3.96,2.35,5.96,3.5,2,1.15,4.02,2.26,6.02,3.41,2.14,1.23,4.25,2.49,6.39,3.72,1.9,1.09,3.77,2.21,5.69,3.26,2.09,1.15,4.1,2.43,6.17,3.62,2,1.15,4.02,2.27,6.02,3.41.55.31,1.31.56,1.55,1.05.32.66.75.51,1.22.62.82.18.97-.58,1.45-.86,1.2-.7,2.41-1.39,3.62-2.09,2.09-1.23,4.2-2.42,6.3-3.63,1.93-1.11,3.85-2.24,5.77-3.35,2.13-1.23,4.27-2.46,6.4-3.69,1.34-.77,2.69-1.55,4.04-2.31,1.45-.83,2.91-1.63,4.36-2.47,1.44-.83,2.86-1.71,4.31-2.54,2-1.15,4.02-2.26,6.01-3.41,1.99-1.16,3.95-2.37,5.95-3.52,2.03-1.17,4.1-2.29,6.13-3.46,1.99-1.15,3.95-2.37,5.95-3.51,2.59-1.49,5.21-2.9,7.79-4.41,2.95-1.73,5.84-3.58,8.91-5.06.97-.47,1.04-.99,1.04-1.86-.02-29.24-.01-58.47-.01-87.71,0-.32.01-.64,0-.96-.01-.18.05-.41-.22-.48-1.21-.32-2.2-1.09-3.27-1.69-1.98-1.11-3.94-2.23-5.91-3.36-1.51-.87-3.01-1.76-4.53-2.64-1.38-.8-2.76-1.58-4.14-2.38-1.44-.84-2.87-1.71-4.31-2.54-2.07-1.19-4.15-2.36-6.21-3.56-1.96-1.13-3.9-2.3-5.86-3.42-1.45-.83-2.92-1.62-4.37-2.45-2.14-1.22-4.27-2.47-6.4-3.71-1.38-.8-2.75-1.59-4.13-2.39-1.95-1.14-3.9-2.3-5.86-3.44-1.54-.9-3.1-1.77-4.65-2.66-1.38-.79-2.75-1.6-4.13-2.38-1.45-.83-2.91-1.63-4.36-2.46-1.52-.87-3.08-1.67-4.52-2.65-1.38-.94-3.19-1.27-4.17-2.8-.11-.17-.28-.14-.43-.13-.69.03-1.52-.3-1.84.73-.04.14-.33.19-.5.3-.89.53-1.77,1.07-2.66,1.59-1.34.78-2.68,1.55-4.03,2.31-1.45.82-2.91,1.63-4.36,2.46-2.1,1.21-4.19,2.43-6.28,3.65-1.48.86-2.94,1.74-4.42,2.59-1.41.81-2.83,1.6-4.25,2.41-1.38.79-2.77,1.57-4.14,2.36-1.44.84-2.87,1.71-4.31,2.54-2,1.15-4.02,2.26-6.02,3.42-1.99,1.15-3.96,2.35-5.95,3.5-2.03,1.17-4.09,2.29-6.12,3.47-2.62,1.51-5.2,3.08-7.82,4.58-2.55,1.47-5.14,2.86-7.67,4.35-2.36,1.39-4.68,2.88-7.16,4.05-.83.39-1,.82-1,1.66.03,14.64.02,29.28.02,43.91Z"/>
  <path class="cls-2" d="m29.85,107.73c0-14.64,0-29.28-.02-43.91,0-.84.17-1.27,1-1.66,2.48-1.17,4.79-2.66,7.16-4.05,2.53-1.49,5.12-2.88,7.67-4.35,2.62-1.51,5.21-3.07,7.82-4.58,2.03-1.17,4.09-2.3,6.12-3.47,1.99-1.15,3.96-2.35,5.95-3.5,2-1.15,4.02-2.27,6.02-3.42,1.45-.83,2.87-1.71,4.31-2.54,1.37-.8,2.76-1.58,4.14-2.36,1.42-.8,2.84-1.59,4.25-2.41,1.48-.85,2.95-1.73,4.42-2.59,2.09-1.22,4.18-2.45,6.28-3.65,1.45-.83,2.91-1.64,4.36-2.46,1.35-.76,2.69-1.53,4.03-2.31.89-.52,1.78-1.06,2.66-1.59.17-.1.46-.16.5-.3.32-1.03,1.15-.69,1.84-.73.15,0,.32-.03.43.13.98,1.53,2.78,1.86,4.17,2.8,1.44.98,3,1.79,4.52,2.65,1.45.83,2.91,1.63,4.36,2.46,1.38.79,2.75,1.59,4.13,2.38,1.55.89,3.11,1.77,4.65,2.66,1.96,1.14,3.9,2.3,5.86,3.44,1.37.8,2.75,1.59,4.13,2.39,2.13,1.24,4.26,2.48,6.4,3.71,1.45.83,2.93,1.61,4.37,2.45,1.96,1.13,3.9,2.29,5.86,3.42,2.07,1.19,4.15,2.36,6.21,3.56,1.44.84,2.87,1.7,4.31,2.54,1.37.8,2.76,1.58,4.14,2.38,1.51.88,3.01,1.77,4.53,2.64,1.96,1.13,3.93,2.25,5.91,3.36,1.07.6,2.06,1.36,3.27,1.69.27.07.21.3.22.48.02.32,0,.64,0,.96,0,29.24,0,58.47.01,87.71,0,.87-.08,1.39-1.04,1.86-3.08,1.48-5.96,3.34-8.91,5.06-2.57,1.51-5.2,2.92-7.79,4.41-2,1.15-3.95,2.36-5.95,3.51-2.03,1.17-4.1,2.29-6.13,3.46-2,1.15-3.96,2.37-5.95,3.52-1.99,1.16-4.01,2.26-6.01,3.41-1.44.83-2.86,1.7-4.31,2.54-1.45.84-2.91,1.64-4.36,2.47-1.35.77-2.69,1.54-4.04,2.31-2.14,1.23-4.27,2.46-6.4,3.69-1.93,1.11-3.85,2.24-5.77,3.35-2.1,1.21-4.21,2.41-6.3,3.63-1.2.7-2.41,1.39-3.62,2.09-.48.28-.63,1.04-1.45.86-.47-.11-.9.04-1.22-.62-.24-.49-1-.73-1.55-1.05-2-1.14-4.02-2.25-6.02-3.41-2.06-1.19-4.08-2.48-6.17-3.62-1.92-1.05-3.8-2.17-5.69-3.26-2.14-1.23-4.25-2.49-6.39-3.72-2-1.15-4.02-2.26-6.02-3.41-2-1.15-3.97-2.33-5.96-3.5-1.37-.8-2.75-1.6-4.13-2.39-1.45-.83-2.91-1.63-4.35-2.47-2-1.15-3.98-2.33-5.97-3.49-1.57-.92-3.18-1.79-4.73-2.74-1.9-1.16-3.87-2.21-5.8-3.32-2.13-1.23-4.23-2.54-6.39-3.71-2.41-1.3-4.66-2.9-7.2-3.96-.28-.12-.37-.22-.38-.48,0-.32,0-.64,0-.96,0-14.68,0-29.36,0-44.03Zm47.07-18.29c-.65-.22-.89.08-.64.69.17.4.41.78.65,1.14,1.46,2.19,2.66,4.52,3.97,6.8.82,1.41,1.65,2.81,2.47,4.22,1.18,2.03,2.34,4.07,3.51,6.1,1.17,2.03,2.35,4.06,3.52,6.09,1.12,1.93,2.25,3.84,3.35,5.78,1.17,2.03,2.31,4.08,3.48,6.12,1.19,2.07,2.39,4.13,3.59,6.2,1.2,2.06,2.46,4.09,3.58,6.2.83,1.57,2.01,2.97,2.53,4.71.12.41.37.72.85.71.46,0,.75-.29.88-.7.55-1.78,1.75-3.2,2.61-4.82,1.14-2.14,2.4-4.22,3.62-6.32.8-1.38,1.59-2.75,2.39-4.13,1.14-1.96,2.3-3.91,3.44-5.87,1.24-2.13,2.46-4.27,3.69-6.41,1.13-1.97,2.27-3.93,3.39-5.9,1.12-1.97,2.22-3.95,3.36-5.91,1.18-2.03,2.39-4.05,3.57-6.07,1.37-2.33,2.58-4.75,4.11-6.99.16-.23.3-.47.43-.72.15-.28.31-.59.11-.9-.21-.34-.56-.24-.87-.19-.55.08-1.09.22-1.66.22-8.24-.02-16.47-.05-24.71-.05-11.75,0-23.5,0-35.25,0Zm20.34,59.63c.27.09.59.12.75-.16.25-.44.08-.87-.17-1.24-.31-.46-.75-.8-1.01-1.32-.72-1.42-1.52-2.79-2.32-4.18-1.23-2.14-2.47-4.26-3.7-6.39-1.14-1.96-2.27-3.93-3.4-5.89-1.18-2.03-2.36-4.06-3.53-6.09-1.15-2-2.29-4.01-3.45-6-1.14-1.96-2.31-3.9-3.44-5.87-1.48-2.59-2.92-5.21-4.41-7.79-1.51-2.62-3.2-5.13-4.46-7.89-.15-.34-.3-.7-.73-.69-.51,0-.59.45-.71.84-.34,1.11-.86,2.14-1.4,3.16-.84,1.58-1.58,3.21-2.35,4.82-.81,1.69-1.59,3.38-2.41,5.06-.82,1.68-1.7,3.33-2.51,5.01-1.16,2.4-2.25,4.83-3.42,7.23-1.17,2.39-2.41,4.75-3.57,7.15-1.16,2.39-2.21,4.84-3.43,7.21-1.36,2.65-2.54,5.39-3.99,7.99-.57,1.01-.32,1.32.84,1.38,3.95.21,7.92.27,11.85.7,6.64.72,13.32.99,19.97,1.47,7.01.5,14,1.27,21.04,1.49Zm21.15.08c1.4-.49,2.94-.2,4.44-.35,7.6-.76,15.23-.97,22.83-1.73,2.94-.29,5.92-.2,8.86-.53,5.61-.62,11.24-.74,16.86-1.13.98-.07,1.15-.36.77-1.33-.37-.93-1-1.72-1.4-2.64-.75-1.75-1.66-3.43-2.5-5.14-.79-1.6-1.59-3.2-2.36-4.81-.8-1.68-1.51-3.41-2.39-5.06-.93-1.76-1.74-3.57-2.63-5.35-.84-1.67-1.62-3.37-2.44-5.05-.89-1.82-1.79-3.64-2.67-5.46-.78-1.61-1.53-3.23-2.32-4.83-.84-1.71-1.76-3.38-2.54-5.12-.69-1.52-1.6-2.93-2.03-4.58-.15-.6-.7-.64-1.08-.15-.14.18-.23.42-.33.64-.64,1.42-1.49,2.72-2.28,4.05-1.11,1.88-2.2,3.78-3.29,5.68-.87,1.51-1.72,3.04-2.6,4.55-1.13,1.96-2.28,3.92-3.42,5.88-1.19,2.07-2.38,4.14-3.57,6.21-1.17,2.03-2.35,4.06-3.52,6.09-1.13,1.97-2.25,3.94-3.39,5.9-1.18,2.03-2.34,4.07-3.56,6.08-1.34,2.2-2.35,4.6-3.98,6.62-.14.18-.24.42-.29.65-.15.64.08.91.8.9Zm-10.68-70.23s0,.03,0,.05c4.8,0,9.59-.05,14.39.01,5.27.07,10.55-.27,15.81.17.29.02.57,0,.73-.3.18-.33.07-.63-.17-.87-.87-.83-1.51-1.84-2.17-2.84-1.85-2.79-3.73-5.56-5.6-8.33-1.73-2.58-3.46-5.16-5.2-7.73-1.58-2.34-3.19-4.67-4.77-7.01-1.76-2.61-3.51-5.22-5.26-7.83-2.29-3.4-4.77-6.68-6.8-10.24-.44-.76-1.27-.75-1.69.03-.22.42-.39.86-.66,1.27-1.87,2.72-3.71,5.47-5.56,8.2-1.83,2.7-3.67,5.4-5.49,8.11-1.49,2.21-2.97,4.43-4.46,6.64-1.45,2.15-2.9,4.29-4.35,6.43-1.54,2.27-3.05,4.57-4.65,6.81-1.52,2.14-2.7,4.52-4.56,6.41-.27.28-.43.59-.22.97.19.34.53.32.85.28.59-.09,1.17-.23,1.78-.23,9.35,0,18.71,0,28.06,0Zm67.79-3.21c.21-.29.2-.57-.11-.72-.32-.15-.63-.06-.9.13-1.07.77-2.19,1.44-3.34,2.08-2.56,1.44-5.03,3.04-7.61,4.45-2.51,1.37-4.9,2.96-7.49,4.19-.44.21-.54.58-.39,1.01.13.37.28.76.52,1.07.69.94,1.01,2.07,1.57,3.08.99,1.81,1.82,3.7,2.72,5.56.76,1.57,1.54,3.14,2.3,4.72.8,1.68,1.56,3.38,2.38,5.06.83,1.72,1.73,3.4,2.56,5.12,1.16,2.4,2.26,4.83,3.44,7.22.99,1.99,2.12,3.91,2.81,6.05.21.63.63,1.19.97,1.78.1.18.27.31.49.26.27-.05.38-.27.42-.52.06-.37-.04-.72-.12-1.07-.28-1.34-.37-2.69-.33-4.05.06-1.88.1-3.76.1-5.63.01-5.56,0-11.11,0-16.67v-23.12ZM39.9,125.9c-.09.36-.1.77.35.86.39.08.52-.28.66-.57.41-.82.89-1.58,1.14-2.49.25-.87.65-1.72,1.11-2.51.99-1.68,1.74-3.48,2.62-5.22.84-1.67,1.6-3.38,2.41-5.06.88-1.82,1.8-3.64,2.68-5.46.78-1.61,1.53-3.23,2.33-4.83.83-1.67,1.74-3.3,2.51-5,.87-1.91,1.83-3.78,2.74-5.68.43-.89.88-1.78,1.35-2.65.46-.86.28-1.14-.55-1.59-1.4-.75-2.78-1.55-4.15-2.34-1.96-1.13-3.89-2.3-5.86-3.42-2.28-1.3-4.59-2.54-6.8-3.95-.47-.3-.93-.62-1.4-.91-.29-.17-.62-.24-.9-.01-.25.19-.25.5-.18.77.48,1.9.2,3.82.21,5.73.04,7.39.07,14.79,0,22.18-.07,7.38.3,14.77-.3,22.15Zm19.1,30.7c-.26.06-.84-.18-.96.42-.13.63.4.79.88.92,1.61.42,2.99,1.32,4.37,2.17,1.56.96,3.16,1.83,4.73,2.77,1.36.81,2.76,1.58,4.13,2.38,1.99,1.16,3.97,2.34,5.96,3.49,2.1,1.22,4.2,2.41,6.3,3.62,1.38.79,2.75,1.6,4.13,2.39,1.45.83,2.91,1.63,4.35,2.46,1.51.87,3.04,1.72,4.52,2.64,1.42.87,2.97,1.54,4.25,2.63.25.22.52.41.86.26.42-.18.4-.58.34-.93-.27-1.51-.13-3.03-.12-4.55.04-5.47-.14-10.95.1-16.42.04-.83-.18-1.1-1.03-1.11-1.2-.02-2.4-.04-3.59-.16-2.07-.21-4.13-.51-6.21-.58-7.31-.23-14.58-1.09-21.89-1.47-3.66-.19-7.34-.43-11.12-.94Zm53.96,14.41c-.15,3.55.17,7.26-.14,10.98-.03.33.01.66.38.8.29.11.54-.02.77-.21,1.88-1.57,4.14-2.51,6.2-3.77,1.35-.83,2.75-1.59,4.12-2.39,1.44-.84,2.87-1.69,4.31-2.52,1.45-.83,2.91-1.64,4.35-2.47,1.52-.87,3.02-1.76,4.53-2.64,1.44-.84,2.88-1.69,4.32-2.53,1.37-.8,2.76-1.58,4.13-2.37,1.48-.85,2.94-1.74,4.44-2.55,1.6-.87,3.07-1.98,4.75-2.72.58-.26,1.14-.56,1.77-.71.46-.11.87-.36.74-.91-.13-.51-.62-.39-1.01-.4-.08,0-.16,0-.24.02-1.74.33-3.51.26-5.25.47-6.47.78-12.99.89-19.49,1.43-5.89.49-11.79.95-17.69,1.23-.9.04-1.14.24-1.1,1.04.18,3.36,0,6.71.09,10.24Zm56.83-105.23c.02-.42-.19-.68-.58-.8-1.86-.55-3.34-1.81-5.01-2.71-1.47-.79-2.91-1.64-4.36-2.46-1.38-.79-2.76-1.57-4.14-2.37-1.51-.87-3.01-1.76-4.52-2.63-1.38-.79-2.76-1.57-4.14-2.37-1.48-.86-2.94-1.73-4.41-2.59-1.47-.86-2.95-1.71-4.43-2.57-1.41-.81-2.82-1.62-4.23-2.43-1.51-.87-3.01-1.76-4.55-2.59-1.2-.64-2.24-1.52-3.37-2.26-.31-.21-.66-.4-.97-.07-.34.37,0,.63.23.91.56.67,1.14,1.33,1.64,2.05,1.5,2.16,2.96,4.34,4.44,6.51,1.79,2.63,3.59,5.26,5.37,7.91,2.49,3.7,4.92,7.44,7.45,11.11,1.81,2.62,3.58,5.27,5.36,7.91.65.97.96,1.09,1.9.44,1.7-1.17,3.55-2.11,5.33-3.13,3.16-1.82,6.27-3.74,9.46-5.52.92-.52,1.72-1.3,2.85-1.46.42-.06.66-.42.68-.88Zm-79.05-25.5c-.01-.17-.06-.32-.21-.41-.32-.2-.62-.07-.89.13-1.67,1.22-3.41,2.33-5.23,3.32-1.98,1.09-3.91,2.28-5.87,3.41-2,1.14-4.03,2.23-6.02,3.39-2.58,1.5-5.09,3.12-7.7,4.53-2.66,1.44-5.22,3.03-7.87,4.47-2.62,1.42-5.11,3.07-7.72,4.51-.82.45-1.52,1.19-2.53,1.31-.48.06-.79.35-.78.89.01.54.36.8.82.9,1.13.24,1.97,1.02,2.94,1.55,2.02,1.1,3.98,2.32,5.97,3.48,1.54.9,3.09,1.79,4.65,2.67,1.42.8,2.85,1.58,4.2,2.5.48.33,1,.44,1.43-.22,2.31-3.49,4.64-6.96,6.97-10.43,1.87-2.78,3.76-5.54,5.64-8.31,1.74-2.57,3.47-5.15,5.22-7.72,2.16-3.16,4.08-6.47,6.6-9.37.16-.18.36-.33.39-.58Z"/>
  <path class="cls-1" d="m76.92,89.44c11.75,0,23.5,0,35.25,0,8.24,0,16.47.03,24.71.05.57,0,1.11-.14,1.66-.22.31-.04.66-.14.87.19.2.32.04.62-.11.9-.13.25-.27.49-.43.72-1.53,2.24-2.74,4.66-4.11,6.99-1.19,2.02-2.4,4.04-3.57,6.07-1.14,1.96-2.23,3.95-3.36,5.91-1.12,1.97-2.26,3.93-3.39,5.9-1.23,2.14-2.45,4.28-3.69,6.41-1.14,1.96-2.3,3.91-3.44,5.87-.8,1.37-1.6,2.75-2.39,4.13-1.21,2.1-2.48,4.18-3.62,6.32-.86,1.61-2.06,3.03-2.61,4.82-.13.41-.42.69-.88.7-.48,0-.72-.3-.85-.71-.52-1.74-1.7-3.13-2.53-4.71-1.12-2.11-2.38-4.14-3.58-6.2-1.2-2.06-2.4-4.13-3.59-6.2-1.17-2.03-2.31-4.08-3.48-6.12-1.11-1.93-2.24-3.85-3.35-5.78-1.18-2.03-2.35-4.06-3.52-6.09-1.17-2.03-2.34-4.07-3.51-6.1-.82-1.41-1.66-2.81-2.47-4.22-1.31-2.27-2.51-4.61-3.97-6.8-.24-.36-.49-.74-.65-1.14-.25-.61-.01-.91.64-.69Z"/>
  <path class="cls-1" d="m97.26,149.07c-7.03-.22-14.03-.99-21.04-1.49-6.65-.48-13.33-.75-19.97-1.47-3.93-.42-7.9-.49-11.85-.7-1.17-.06-1.41-.37-.84-1.38,1.45-2.6,2.63-5.34,3.99-7.99,1.22-2.37,2.26-4.82,3.43-7.21,1.17-2.39,2.41-4.75,3.57-7.15,1.17-2.4,2.26-4.83,3.42-7.23.81-1.68,1.69-3.33,2.51-5.01.82-1.68,1.61-3.38,2.41-5.06.77-1.61,1.52-3.24,2.35-4.82.54-1.03,1.06-2.05,1.4-3.16.12-.38.2-.83.71-.84.43,0,.58.36.73.69,1.26,2.76,2.95,5.27,4.46,7.89,1.49,2.58,2.93,5.2,4.41,7.79,1.13,1.97,2.3,3.91,3.44,5.87,1.16,2,2.3,4,3.45,6,1.17,2.03,2.36,4.06,3.53,6.09,1.14,1.96,2.27,3.93,3.4,5.89,1.23,2.13,2.48,4.26,3.7,6.39.79,1.38,1.59,2.76,2.32,4.18.27.52.7.86,1.01,1.32.25.37.42.8.17,1.24-.16.28-.47.25-.75.16Z"/>
  <path class="cls-1" d="m118.41,149.15c-.73.01-.96-.26-.8-.9.05-.23.15-.47.29-.65,1.63-2.03,2.64-4.42,3.98-6.62,1.22-2.01,2.38-4.04,3.56-6.08,1.14-1.96,2.26-3.93,3.39-5.9,1.17-2.03,2.35-4.06,3.52-6.09,1.19-2.07,2.37-4.14,3.57-6.21,1.13-1.96,2.28-3.92,3.42-5.88.87-1.51,1.73-3.04,2.6-4.55,1.09-1.9,2.18-3.79,3.29-5.68.79-1.33,1.64-2.63,2.28-4.05.1-.22.18-.45.33-.64.38-.49.93-.45,1.08.15.42,1.65,1.34,3.06,2.03,4.58.79,1.73,1.71,3.41,2.54,5.12.79,1.6,1.54,3.23,2.32,4.83.88,1.82,1.79,3.64,2.67,5.46.82,1.68,1.6,3.38,2.44,5.05.89,1.78,1.69,3.59,2.63,5.35.87,1.64,1.58,3.38,2.39,5.06.77,1.61,1.57,3.21,2.36,4.81.84,1.71,1.75,3.39,2.5,5.14.4.93,1.03,1.71,1.4,2.64.38.97.22,1.26-.77,1.33-5.62.39-11.25.51-16.86,1.13-2.94.32-5.92.23-8.86.53-7.6.76-15.24.97-22.83,1.73-1.51.15-3.05-.15-4.44.35Z"/>
  <path class="cls-1" d="m107.73,78.92c-9.35,0-18.71,0-28.06,0-.61,0-1.19.14-1.78.23-.32.05-.66.07-.85-.28-.21-.38-.05-.69.22-.97,1.86-1.9,3.04-4.28,4.56-6.41,1.59-2.24,3.1-4.53,4.65-6.81,1.45-2.14,2.9-4.29,4.35-6.43,1.49-2.21,2.97-4.43,4.46-6.64,1.83-2.71,3.66-5.4,5.49-8.11,1.85-2.74,3.69-5.48,5.56-8.2.28-.4.44-.85.66-1.27.42-.78,1.25-.79,1.69-.03,2.04,3.57,4.52,6.84,6.8,10.24,1.75,2.61,3.5,5.23,5.26,7.83,1.58,2.34,3.19,4.67,4.77,7.01,1.74,2.57,3.47,5.15,5.2,7.73,1.87,2.78,3.76,5.54,5.6,8.33.66,1,1.3,2.01,2.17,2.84.25.24.35.54.17.87-.16.29-.44.32-.73.3-5.27-.44-10.54-.1-15.81-.17-4.8-.06-9.59-.01-14.39-.01,0-.02,0-.03,0-.05Z"/>
  <path class="cls-1" d="m175.52,75.71v23.12c0,5.56,0,11.11,0,16.67,0,1.88-.04,3.76-.1,5.63-.04,1.37.05,2.72.33,4.05.07.35.18.7.12,1.07-.04.25-.15.47-.42.52-.22.04-.39-.09-.49-.26-.34-.59-.77-1.15-.97-1.78-.7-2.14-1.83-4.06-2.81-6.05-1.18-2.39-2.28-4.82-3.44-7.22-.83-1.72-1.73-3.4-2.56-5.12-.81-1.68-1.58-3.38-2.38-5.06-.75-1.58-1.53-3.15-2.3-4.72-.9-1.86-1.73-3.75-2.72-5.56-.55-1.01-.87-2.14-1.57-3.08-.23-.32-.38-.7-.52-1.07-.15-.42-.05-.8.39-1.01,2.59-1.23,4.97-2.82,7.49-4.19,2.58-1.4,5.05-3.01,7.61-4.45,1.15-.65,2.27-1.31,3.34-2.08.27-.19.58-.29.9-.13.31.15.32.43.11.72Z"/>
  <path class="cls-1" d="m39.9,125.9c.6-7.37.23-14.77.3-22.15.07-7.39.03-14.79,0-22.18,0-1.91.27-3.84-.21-5.73-.07-.28-.07-.58.18-.77.28-.22.62-.16.9.01.48.29.93.61,1.4.91,2.21,1.42,4.52,2.65,6.8,3.95,1.96,1.12,3.9,2.29,5.86,3.42,1.37.8,2.75,1.59,4.15,2.34.83.45,1.01.72.55,1.59-.47.88-.92,1.76-1.35,2.65-.92,1.89-1.87,3.76-2.74,5.68-.77,1.7-1.69,3.33-2.51,5-.79,1.6-1.54,3.23-2.33,4.83-.89,1.82-1.8,3.63-2.68,5.46-.81,1.68-1.57,3.39-2.41,5.06-.88,1.74-1.63,3.54-2.62,5.22-.46.78-.87,1.63-1.11,2.51-.26.91-.73,1.67-1.14,2.49-.14.29-.27.65-.66.57-.45-.09-.44-.5-.35-.86Z"/>
  <path class="cls-1" d="m59,156.59c3.79.51,7.46.75,11.12.94,7.31.38,14.57,1.24,21.89,1.47,2.07.07,4.14.37,6.21.58,1.2.12,2.39.14,3.59.16.85.01,1.06.28,1.03,1.11-.24,5.47-.06,10.95-.1,16.42-.01,1.51-.15,3.04.12,4.55.06.35.08.75-.34.93-.34.15-.6-.04-.86-.26-1.28-1.09-2.83-1.76-4.25-2.63-1.49-.92-3.01-1.77-4.52-2.64-1.45-.83-2.91-1.63-4.35-2.46-1.38-.79-2.75-1.6-4.13-2.39-2.1-1.21-4.21-2.41-6.3-3.62-1.99-1.16-3.97-2.34-5.96-3.49-1.37-.8-2.76-1.57-4.13-2.38-1.57-.94-3.18-1.8-4.73-2.77-1.38-.85-2.76-1.75-4.37-2.17-.48-.13-1.01-.29-.88-.92.12-.61.7-.36.96-.42Z"/>
  <path class="cls-1" d="m112.96,171c-.1-3.52.09-6.88-.09-10.24-.04-.8.2-1,1.1-1.04,5.91-.28,11.81-.74,17.69-1.23,6.49-.54,13.01-.65,19.49-1.43,1.74-.21,3.51-.14,5.25-.47.08-.01.16-.02.24-.02.39.02.88-.1,1.01.4.14.55-.28.8-.74.91-.63.15-1.19.46-1.77.71-1.68.74-3.15,1.84-4.75,2.72-1.5.82-2.96,1.7-4.44,2.55-1.38.79-2.76,1.57-4.13,2.37-1.44.84-2.88,1.68-4.32,2.53-1.51.88-3.02,1.77-4.53,2.64-1.45.83-2.91,1.64-4.35,2.47-1.44.83-2.87,1.69-4.31,2.52-1.37.8-2.77,1.56-4.12,2.39-2.06,1.26-4.32,2.2-6.2,3.77-.23.19-.47.32-.77.21-.37-.14-.41-.47-.38-.8.31-3.71,0-7.43.14-10.98Z"/>
  <path class="cls-1" d="m169.79,65.77c-.01.46-.26.82-.68.88-1.13.16-1.93.94-2.85,1.46-3.19,1.78-6.29,3.7-9.46,5.52-1.79,1.03-3.63,1.96-5.33,3.13-.95.65-1.25.53-1.9-.44-1.78-2.64-3.55-5.29-5.36-7.91-2.54-3.67-4.96-7.41-7.45-11.11-1.78-2.64-3.58-5.27-5.37-7.91-1.48-2.17-2.94-4.35-4.44-6.51-.5-.72-1.08-1.38-1.64-2.05-.24-.28-.57-.54-.23-.91.31-.34.66-.14.97.07,1.13.74,2.17,1.62,3.37,2.26,1.54.82,3.04,1.72,4.55,2.59,1.41.81,2.82,1.62,4.23,2.43,1.48.85,2.96,1.71,4.43,2.57,1.47.86,2.94,1.74,4.41,2.59,1.37.8,2.76,1.57,4.14,2.37,1.51.87,3.01,1.76,4.52,2.63,1.38.79,2.76,1.58,4.14,2.37,1.45.83,2.89,1.67,4.36,2.46,1.67.9,3.15,2.16,5.01,2.71.39.12.6.38.58.8Z"/>
  <path class="cls-1" d="m90.74,40.27c-.04.26-.24.4-.39.58-2.51,2.9-4.44,6.22-6.6,9.37-1.75,2.56-3.48,5.15-5.22,7.72-1.88,2.77-3.77,5.53-5.64,8.31-2.34,3.47-4.66,6.94-6.97,10.43-.44.66-.95.55-1.43.22-1.35-.92-2.78-1.7-4.2-2.5-1.56-.88-3.11-1.77-4.65-2.67-1.99-1.16-3.95-2.37-5.97-3.48-.97-.53-1.81-1.31-2.94-1.55-.45-.1-.8-.35-.82-.9-.01-.54.3-.84.78-.89,1.01-.12,1.71-.85,2.53-1.31,2.61-1.44,5.1-3.09,7.72-4.51,2.65-1.44,5.21-3.04,7.87-4.47,2.62-1.42,5.13-3.04,7.7-4.53,1.99-1.16,4.02-2.25,6.02-3.39,1.96-1.12,3.89-2.32,5.87-3.41,1.82-1,3.56-2.11,5.23-3.32.27-.19.56-.32.89-.13.14.09.2.24.21.41Z"/>
</svg>